<?xml version="1.0" encoding="UTF-8"?>
<svg version="1.1" xmlns="http://www.w3.org/2000/svg" width="500" height="500">
<path d="M0 0 C2.32547617 -0.00271338 4.65095148 -0.00627625 6.97642517 -0.01062012 C13.26566465 -0.0197056 19.55483821 -0.01621558 25.84407878 -0.00986195 C31.77184318 -0.00529724 37.6995996 -0.00879002 43.62736423 -0.01171634 C56.08426788 -0.01740668 68.541142 -0.01088237 80.9980408 -0.0001156 C91.66212011 0.00881663 102.32615585 0.00726805 112.99023438 -0.00195312 C125.40395958 -0.01268234 137.81765896 -0.01685528 150.23138815 -0.0107286 C156.79160295 -0.0076193 163.35178781 -0.00717084 169.91200066 -0.01380157 C176.08200232 -0.01960276 182.25192218 -0.01552754 188.42191505 -0.00401306 C190.67888122 -0.00138116 192.93585434 -0.00210627 195.19281769 -0.00653839 C217.97367031 -0.04713056 237.56040513 2.30150055 256.99633789 15.25878906 C256.99633789 15.91878906 256.99633789 16.57878906 256.99633789 17.25878906 C257.55708008 17.49726562 258.11782227 17.73574219 258.69555664 17.98144531 C272.92194475 25.87962682 280.01237227 42.8480061 284.74243164 57.58300781 C288.49333158 72.38307035 288.28937257 88.20434229 288.25512695 103.35400391 C288.25784471 105.40300113 288.26141001 107.45199738 288.26574707 109.50099182 C288.27478119 115.01144847 288.27136397 120.52182933 288.2649889 126.03228712 C288.2598806 131.83513544 288.26463377 137.63797781 288.26776123 143.44082642 C288.2713875 153.18289337 288.26663769 162.92492987 288.25708008 172.66699219 C288.24620427 183.88118571 288.24972022 195.09530644 288.26073289 206.30949819 C288.26985142 215.98738229 288.27106866 225.66524465 288.26585555 235.34313166 C288.26276004 241.10144085 288.26225901 246.859716 288.26892853 252.61802292 C288.27476802 258.03711995 288.27058625 263.45612452 288.25914001 268.87521172 C288.25652807 270.84704498 288.25719795 272.81888623 288.26166534 274.79071617 C288.31322085 299.88865356 286.2598318 321.94779192 273.99633789 344.25878906 C273.46137695 345.23589844 272.92641602 346.21300781 272.37524414 347.21972656 C271.92020508 347.89261719 271.46516602 348.56550781 270.99633789 349.25878906 C270.33633789 349.25878906 269.67633789 349.25878906 268.99633789 349.25878906 C268.74883789 349.87753906 268.50133789 350.49628906 268.24633789 351.13378906 C266.7900515 353.60947593 265.61821283 354.21003909 262.99633789 355.25878906 C262.99633789 355.91878906 262.99633789 356.57878906 262.99633789 357.25878906 C262.33633789 357.25878906 261.67633789 357.25878906 260.99633789 357.25878906 C260.99633789 357.91878906 260.99633789 358.57878906 260.99633789 359.25878906 C258.50635951 361.00147501 256.02365247 362.61501902 253.43383789 364.19628906 C252.72936523 364.63908203 252.02489258 365.081875 251.29907227 365.53808594 C244.66902902 369.63832466 238.06602627 372.42982479 230.49633789 374.38378906 C228.62461914 374.88265625 228.62461914 374.88265625 226.71508789 375.39160156 C213.30068447 378.22020262 198.96548705 377.4027859 185.33618164 377.38818359 C183.19084646 377.38954138 181.04551151 377.39132342 178.900177 377.39349365 C173.11511276 377.39802313 167.33006651 377.39629699 161.54500198 377.39311457 C155.46619878 377.39056767 149.38739702 377.39293496 143.30859375 377.39450073 C133.10391974 377.39631565 122.89925299 377.39393392 112.69458008 377.38916016 C100.92766838 377.38371885 89.16077401 377.38548198 77.39386272 377.39098656 C67.25752712 377.39553701 57.12119671 377.39615879 46.98486042 377.39354789 C40.94554167 377.39199574 34.90623105 377.39176209 28.86691284 377.39508438 C23.18689037 377.39799124 17.50689006 377.39593606 11.82686996 377.39019012 C9.75295931 377.38887755 7.67904675 377.38923082 5.60513687 377.39145279 C-18.61929621 377.41499677 -40.6752435 376.3466823 -62.00366211 363.25878906 C-62.00366211 362.59878906 -62.00366211 361.93878906 -62.00366211 361.25878906 C-63.65366211 360.59878906 -65.30366211 359.93878906 -67.00366211 359.25878906 C-67.00366211 358.59878906 -67.00366211 357.93878906 -67.00366211 357.25878906 C-67.66366211 357.25878906 -68.32366211 357.25878906 -69.00366211 357.25878906 C-69.00366211 356.59878906 -69.00366211 355.93878906 -69.00366211 355.25878906 C-70.32366211 354.59878906 -71.64366211 353.93878906 -73.00366211 353.25878906 C-73.00366211 352.59878906 -73.00366211 351.93878906 -73.00366211 351.25878906 C-73.66366211 351.25878906 -74.32366211 351.25878906 -75.00366211 351.25878906 C-76.64790991 349.03875774 -78.15120095 346.83579039 -79.62866211 344.50878906 C-80.25901367 343.55746094 -80.25901367 343.55746094 -80.90209961 342.58691406 C-83.12409393 339.12406578 -84.00366211 337.46971577 -84.00366211 333.25878906 C-84.66366211 333.25878906 -85.32366211 333.25878906 -86.00366211 333.25878906 C-93.46896412 313.87074744 -94.30821256 294.43702877 -94.26245117 273.85644531 C-94.26516873 271.77464679 -94.26873392 269.69284924 -94.27307129 267.61105347 C-94.28210664 262.01189136 -94.27868797 256.41280383 -94.27231312 250.81364059 C-94.26720685 244.92043627 -94.27195731 239.02723781 -94.27508545 233.1340332 C-94.27871172 223.24233874 -94.2739613 213.35067427 -94.2644043 203.45898438 C-94.25352236 192.0652517 -94.25704889 180.67159063 -94.26805711 169.27785969 C-94.2771683 159.44968972 -94.2783966 149.62154117 -94.27317977 139.79336834 C-94.27008106 133.94346126 -94.26959241 128.09358771 -94.27625275 122.24368286 C-94.28208164 116.74087337 -94.27792919 111.23815513 -94.26646423 105.73535538 C-94.26384702 103.73043086 -94.26453158 101.72549851 -94.26898956 99.72057724 C-94.28809062 90.24799246 -94.14335725 80.87000472 -93.12811279 71.44458008 C-93.05273607 70.73831702 -92.97735936 70.03205397 -92.8996985 69.304389 C-90.27487365 47.67695369 -79.27772581 29.45028788 -63.00366211 15.25878906 C-56.16557355 10.47919486 -48.83930887 7.05520648 -41.00366211 4.25878906 C-40.05491211 3.88753906 -39.10616211 3.51628906 -38.12866211 3.13378906 C-25.55933572 -0.38562233 -12.93600035 -0.02537821 0 0 Z M-22.94116211 57.75878906 C-23.65143555 58.18160156 -24.36170898 58.60441406 -25.09350586 59.04003906 C-26.74333211 60.09268894 -28.37530792 61.1732196 -30.00366211 62.25878906 C-30.00366211 62.91878906 -30.00366211 63.57878906 -30.00366211 64.25878906 C-30.66366211 64.25878906 -31.32366211 64.25878906 -32.00366211 64.25878906 C-33.54380918 66.15498033 -33.54380918 66.15498033 -35.00366211 68.63378906 C-35.51928711 69.44589844 -36.03491211 70.25800781 -36.56616211 71.09472656 C-41.24165698 81.38589733 -40.28772305 92.89689576 -40.26245117 103.94604492 C-40.26516438 105.9395002 -40.26872716 107.93295447 -40.27307129 109.92640686 C-40.28215889 115.31896846 -40.27866586 120.71145319 -40.27231312 126.10401607 C-40.26723361 131.76030983 -40.27195005 137.4165972 -40.27508545 143.07289124 C-40.27871971 152.57098567 -40.27394047 162.06904897 -40.2644043 171.56713867 C-40.25352394 182.53027244 -40.25704449 193.49333179 -40.26805711 204.45646375 C-40.27714911 213.88691433 -40.27840581 223.31734257 -40.27317977 232.74779612 C-40.27007019 238.37235741 -40.26962279 243.99688378 -40.27625275 249.62144279 C-40.28205332 254.91154505 -40.27797985 260.20155189 -40.26646423 265.49164391 C-40.26383198 267.42693677 -40.26455805 269.36223773 -40.26898956 271.29752731 C-40.50025922 292.90445225 -40.50025922 292.90445225 -30.14819336 311.29785156 C-21.67959719 319.24244278 -12.67288413 321.40853118 -1.31417847 321.40596008 C-0.00246648 321.41147512 -0.00246648 321.41147512 1.33574474 321.41710156 C4.26574661 321.42811383 7.19571298 321.43197808 10.12573242 321.43579102 C12.22682304 321.44205753 14.32791255 321.4487045 16.42900085 321.45570374 C23.32904288 321.47672448 30.22908507 321.4871044 37.12915039 321.49707031 C39.50661099 321.50111863 41.88407147 321.50523558 44.26153183 321.50942039 C55.43200979 321.52846783 66.60248115 321.54269971 77.77297223 321.55103236 C90.65756515 321.56080293 103.54198619 321.5871198 116.42651856 321.62753326 C126.39189076 321.65771545 136.35721375 321.67250325 146.32263076 321.67581338 C152.27150151 321.67816147 158.22018854 321.68709087 164.16901016 321.71227455 C169.7685328 321.73559687 175.36775129 321.73977163 180.96730995 321.72951317 C183.01710206 321.72901871 185.06690935 321.7353124 187.11665535 321.74906921 C201.08428408 321.83753199 213.28592528 321.38046863 223.99633789 311.25878906 C235.29302466 299.82572378 234.43639574 285.41375122 234.38452148 270.39208984 C234.38859316 268.40320549 234.39393837 266.41432341 234.40045166 264.42544556 C234.41406192 259.05342962 234.4088522 253.68158764 234.3993144 248.30956888 C234.39168298 242.66803447 234.39877325 237.02651428 234.4034729 231.38497925 C234.40892123 221.91141099 234.401764 212.43791304 234.38745117 202.96435547 C234.37113592 192.03983421 234.37640878 181.11548104 234.39293039 170.19096386 C234.40658284 160.78419697 234.4084463 151.37748043 234.40061438 141.97070682 C234.39595728 136.36450822 234.39525849 130.75838839 234.40522385 125.15219498 C234.41394576 119.87760757 234.40777689 114.60323492 234.39054108 109.3286705 C234.38660358 107.40270086 234.38766281 105.47671287 234.39432907 103.55075073 C234.83396485 82.99488732 234.83396485 82.99488732 225.94946289 65.15722656 C216.27848395 55.75703503 206.73778027 53.098964 193.36968994 53.12507629 C192.51407305 53.12281074 191.65845617 53.12054518 190.7769115 53.11821097 C187.91677158 53.11189309 185.05667932 53.11269892 182.1965332 53.11352539 C180.14293354 53.1105325 178.08933444 53.10712967 176.03573608 53.10334778 C170.46121455 53.09451624 164.88670837 53.09217 159.31218052 53.09153199 C155.82753146 53.09082094 152.34288631 53.08868555 148.85823822 53.08603477 C136.69593559 53.07678373 124.53364392 53.07269953 112.37133789 53.07348633 C101.04359329 53.07408687 89.71589635 53.06353913 78.38816381 53.04774266 C68.65548073 53.03465532 58.92281321 53.02930294 49.19012141 53.02994174 C43.38052746 53.0301964 37.57097586 53.0273628 31.76139069 53.01676369 C26.29488641 53.0070628 20.82846479 53.00701721 15.36195755 53.01428032 C13.36013035 53.01532372 11.35829795 53.01297782 9.35647964 53.00691986 C-7.39822234 52.44043405 -7.39822234 52.44043405 -22.94116211 57.75878906 Z " fill="#0E7CE3" transform="translate(153.003662109375,60.7412109375)"/>
<path d="M0 0 C0.9662606 -0.00065712 0.9662606 -0.00065712 1.95204163 -0.00132751 C4.07877029 0.00076058 6.2047081 0.02409104 8.33129883 0.04760742 C9.80674305 0.05320334 11.28219286 0.05747346 12.75764465 0.06047058 C16.63922542 0.0719198 20.52046891 0.10138731 24.4019165 0.13458252 C28.36335691 0.16528193 32.32485186 0.17897562 36.28637695 0.1940918 C44.05801502 0.22625723 51.82937527 0.27745412 59.60083008 0.34057617 C59.60083008 1.00057617 59.60083008 1.66057617 59.60083008 2.34057617 C60.26083008 2.34057617 60.92083008 2.34057617 61.60083008 2.34057617 C63.1450337 5.42898341 62.74143208 8.68177333 62.73454285 12.0710144 C62.7368084 12.87844436 62.73907396 13.68587431 62.74140817 14.51777184 C62.74776661 17.23850609 62.74691763 19.95919076 62.74609375 22.67993164 C62.7490841 24.62445134 62.75248634 26.56897045 62.75627136 28.51348877 C62.76512842 33.80686169 62.7674502 39.10021846 62.76808715 44.39359808 C62.76903493 48.80726612 62.77271174 53.22093036 62.77625924 57.63459694 C62.78441038 68.04521826 62.78684289 78.45583093 62.78613281 88.86645508 C62.78553192 99.61711082 62.79608456 110.3677164 62.81187648 121.11835945 C62.82493836 130.33792129 62.83031727 139.55746671 62.8296774 148.77703774 C62.82942201 154.28804099 62.83229605 159.79899968 62.84285545 165.30999374 C62.85251366 170.4924394 62.8526313 175.67479772 62.84533882 180.8572464 C62.84429012 182.76161196 62.8466727 184.66598289 62.85269928 186.5703392 C62.86038199 189.16572011 62.85579918 191.76079661 62.84806824 194.35617065 C62.8532118 195.11356281 62.85835536 195.87095497 62.86365479 196.6512984 C62.83920385 200.35415636 62.7509121 203.242625 60.60083008 206.34057617 C57.45657389 208.52907998 54.68360616 208.60249078 50.91772461 208.63110352 C49.77618927 208.64386322 48.63465393 208.65662292 47.45852661 208.66976929 C46.22931488 208.67199493 45.00010315 208.67422058 43.73364258 208.67651367 C42.4661618 208.68317047 41.19868103 208.68982727 39.89279175 208.69668579 C37.21118122 208.70681286 34.52997611 208.71236791 31.84838867 208.71118164 C28.42296747 208.71097857 24.99837704 208.73827211 21.57315254 208.77272606 C18.29334745 208.80039767 15.01354853 208.79914573 11.73364258 208.80151367 C10.50847931 208.8158847 9.28331604 208.83025574 8.02102661 208.84506226 C-2.78644844 208.78712629 -2.78644844 208.78712629 -7.39916992 204.34057617 C-9.9442508 200.63350831 -9.68159993 196.73006883 -9.65986633 192.40086365 C-9.66369188 191.59510283 -9.66751743 190.78934201 -9.6714589 189.9591642 C-9.68178735 187.25607588 -9.67779709 184.55320003 -9.67382812 181.85009766 C-9.67817461 179.91351118 -9.68335754 177.97692643 -9.6893158 176.04034424 C-9.70272189 170.77813147 -9.70328282 165.51599044 -9.7007525 160.25376391 C-9.69968417 155.86475038 -9.70456244 151.47575144 -9.70935792 147.08674103 C-9.72045804 136.73652722 -9.72088724 126.3863497 -9.71484375 116.03613281 C-9.7087984 105.34673312 -9.72112809 94.65746487 -9.74241382 83.96808761 C-9.76000381 74.79860068 -9.76603542 65.62915568 -9.76277608 56.45965248 C-9.76095938 50.97943267 -9.76363804 45.49930668 -9.77749062 40.0191021 C-9.79002255 34.86860172 -9.78816901 29.7183071 -9.77507973 24.56781006 C-9.77270449 22.67431126 -9.7754823 20.78079819 -9.78370285 18.88731575 C-9.79409199 16.30907002 -9.78613343 13.73152483 -9.77339172 11.15330505 C-9.78076601 10.39825524 -9.78814029 9.64320543 -9.79573804 8.86527532 C-9.74327201 3.8437734 -9.74327201 3.8437734 -8.05492973 1.37482834 C-5.41967137 -0.27125683 -3.07478365 -0.01757019 0 0 Z M-1.39916992 132.34057617 C-2.37757781 135.44373842 -2.37757781 135.44373842 -2.15307617 138.72729492 C-2.13954102 139.91258789 -2.12600586 141.09788086 -2.11206055 142.3190918 C-2.06243164 143.54305664 -2.01280273 144.76702148 -1.96166992 146.02807617 C-1.9468457 147.26364258 -1.93202148 148.49920898 -1.91674805 149.7722168 C-1.99573477 156.43530382 -1.99573477 156.43530382 0.60083008 162.34057617 C1.26083008 162.34057617 1.92083008 162.34057617 2.60083008 162.34057617 C2.60083008 163.00057617 2.60083008 163.66057617 2.60083008 164.34057617 C5.41561801 165.92265792 7.48447358 166.59981752 10.70751953 166.6628418 C11.5054744 166.68205688 12.30342926 166.70127197 13.12556458 166.72106934 C14.40689522 166.73381897 14.40689522 166.73381897 15.71411133 166.74682617 C17.04577583 166.76392639 17.04577583 166.76392639 18.40434265 166.78137207 C20.28123225 166.8002418 22.15818766 166.81332805 24.03515625 166.82104492 C26.89352215 166.84044176 29.74899945 166.9024936 32.60668945 166.96557617 C34.43414641 166.97863953 36.26162385 166.98913919 38.08911133 166.99682617 C38.93725906 167.02151978 39.7854068 167.04621338 40.65925598 167.07165527 C46.11187604 167.03112116 49.38396824 165.94045416 53.31690979 162.07144165 C55.38255885 159.28671998 55.49081832 157.00468254 55.49536133 153.58666992 C55.49987305 152.32016602 55.50438477 151.05366211 55.5090332 149.7487793 C55.47745117 148.43844727 55.44586914 147.12811523 55.41333008 145.77807617 C55.43202148 144.46387695 55.45071289 143.14967773 55.4699707 141.7956543 C55.64212711 134.54497247 55.64212711 134.54497247 52.15795898 128.47045898 C48.03315263 125.46137299 43.80111294 125.60243874 38.85473633 125.64135742 C37.9253978 125.63420212 36.99605927 125.62704681 36.03855896 125.61967468 C34.07942663 125.6119145 32.12020749 125.6168741 30.16113281 125.63378906 C27.17516691 125.65300002 24.19386793 125.61362385 21.20825195 125.5690918 C19.29874399 125.56880137 17.38923179 125.57194297 15.47973633 125.57885742 C14.15130455 125.55593376 14.15130455 125.55593376 12.79603577 125.532547 C6.54076043 125.64921286 2.41513316 127.18847937 -1.39916992 132.34057617 Z " fill="#0C7BE3" transform="translate(223.399169921875,146.659423828125)"/>
<path d="M0 0 C1.04165817 -0.01606293 2.08331635 -0.03212585 3.15653992 -0.04867554 C7.93980388 -0.09301432 12.72292619 -0.1342129 17.50634766 -0.15722656 C20.02922806 -0.17377004 22.5520619 -0.20103839 25.07470703 -0.23925781 C28.70736071 -0.29404178 32.33891255 -0.31590672 35.97192383 -0.33056641 C37.09712936 -0.35323578 38.2223349 -0.37590515 39.38163757 -0.39926147 C48.12663233 -0.37569129 48.12663233 -0.37569129 51.81298828 2.60058594 C55.40422742 6.64210974 55.26684389 9.4801057 55.27035522 14.67533875 C55.27692861 15.84655666 55.27692861 15.84655666 55.28363478 17.04143554 C55.297048 19.6722387 55.30320732 22.30300835 55.30932617 24.93383789 C55.31722522 26.81437838 55.32549404 28.69491735 55.33410645 30.57545471 C55.36035166 36.76431831 55.37563759 42.95318876 55.38989258 49.14208984 C55.39525142 51.27106035 55.40062893 53.40003082 55.40602493 55.52900124 C55.42765823 64.38450248 55.44639514 73.24000189 55.45764732 82.09552288 C55.47388687 94.79350997 55.50705979 107.49119106 55.56404817 120.18906277 C55.60273588 129.11313022 55.6222787 138.03711579 55.62756789 146.96126491 C55.63122323 152.29307357 55.64326389 157.62455605 55.67567062 162.95627403 C55.70573012 167.97387603 55.71207055 172.99095413 55.70028687 178.00862694 C55.70006595 179.8488612 55.70838611 181.68911962 55.7259407 183.52927017 C55.74863365 186.04530489 55.74033797 188.55944011 55.72445679 191.07548523 C55.73833887 191.80079317 55.75222096 192.52610112 55.76652372 193.27338809 C55.67996452 198.85339145 53.77593301 202.19429127 50.11645508 206.19287109 C47.13092444 208.31937908 44.66377645 208.44515277 41.04418945 208.45166016 C40.03634399 208.45796448 39.02849854 208.4642688 37.9901123 208.47076416 C36.90774292 208.4667157 35.82537354 208.46266724 34.71020508 208.45849609 C33.59335327 208.46040955 32.47650146 208.462323 31.32580566 208.46429443 C28.9654925 208.46565487 26.60517182 208.46196832 24.24487305 208.45361328 C20.63028164 208.44291203 17.01618726 208.45351363 13.40161133 208.46630859 C11.10864148 208.46498697 8.81567194 208.46242453 6.52270508 208.45849609 C4.899151 208.46456879 4.899151 208.46456879 3.24279785 208.47076416 C1.73102966 208.46130768 1.73102966 208.46130768 0.1887207 208.45166016 C-0.69634155 208.45006897 -1.58140381 208.44847778 -2.49328613 208.44683838 C-5.13966926 208.16565764 -6.6861082 207.69247218 -8.88354492 206.19287109 C-11.42888159 202.51353093 -11.17159857 198.60686503 -11.15769958 194.30458069 C-11.16293626 193.50431456 -11.16817294 192.70404842 -11.17356831 191.8795318 C-11.18858372 189.19494671 -11.18927379 186.51055196 -11.18994141 183.82592773 C-11.19756175 181.90243711 -11.20598903 179.97894954 -11.21516418 178.0554657 C-11.23712585 172.82825496 -11.2459101 167.60110272 -11.25099063 162.37385106 C-11.25463162 159.10935409 -11.26087027 155.84487251 -11.26799202 152.58038139 C-11.29249036 141.19542643 -11.30553967 129.81051708 -11.30908203 118.42553711 C-11.31271968 107.8065395 -11.34263055 97.1878305 -11.38448662 86.56892115 C-11.41914867 77.45630113 -11.43462975 68.34377696 -11.43532807 59.23109144 C-11.43612214 53.78649401 -11.44492117 48.34219063 -11.47332573 42.89766121 C-11.49943699 37.778246 -11.50175042 32.65937011 -11.48567009 27.5399189 C-11.48385018 25.66014941 -11.490595 23.78034939 -11.5064888 21.90064621 C-11.52685502 19.33583603 -11.51645467 16.77292977 -11.49827576 14.20814514 C-11.51147572 13.46281196 -11.52467569 12.71747878 -11.53827566 11.94955975 C-11.47346258 7.9512015 -11.02329881 6.35873282 -8.40762424 3.25441647 C-7.57467807 2.57410649 -6.74173189 1.89379652 -5.88354492 1.19287109 C-4.23006661 -0.46060721 -2.27694216 0.03178651 0 0 Z M-1.88354492 93.19287109 C-4.90703835 97.72811123 -4.29140958 102.16771668 -4.32104492 107.50537109 C-4.35391602 108.53855469 -4.38678711 109.57173828 -4.4206543 110.63623047 C-4.522735 117.18266414 -4.522735 117.18266414 -1.54370117 122.79833984 C3.24117045 127.10542693 6.37200922 127.4897946 12.58129883 127.45849609 C13.411017 127.46040955 14.24073517 127.462323 15.09559631 127.46429443 C16.84986677 127.46565498 18.60414734 127.46196762 20.35839844 127.45361328 C23.04035142 127.44292531 25.72163251 127.45350583 28.40356445 127.46630859 C30.10864405 127.46498671 31.81372324 127.46242372 33.51879883 127.45849609 C34.31994614 127.46254456 35.12109344 127.46659302 35.94651794 127.47076416 C41.34498255 127.44271807 41.34498255 127.44271807 46.11645508 125.19287109 C51.4681857 118.56927857 50.94361806 109.12252773 50.3527832 101.08642578 C49.84313636 97.0029331 48.54088887 94.49279486 46.11645508 91.19287109 C42.37911478 88.47573288 38.05543077 88.86939002 33.62426758 88.85693359 C32.8007077 88.85027679 31.97714783 88.84362 31.12863159 88.83676147 C29.38875558 88.82665106 27.64884091 88.82194396 25.90893555 88.82226562 C23.257401 88.81789736 20.6075385 88.78157645 17.95629883 88.74365234 C16.26229408 88.73778269 14.56828145 88.73381429 12.87426758 88.73193359 C12.0865799 88.71756256 11.29889221 88.70319153 10.48733521 88.68838501 C5.24705592 88.73152621 2.26637451 89.71744131 -1.88354492 93.19287109 Z " fill="#0F7CE3" transform="translate(309.883544921875,146.80712890625)"/>
<path d="M0 0 C0.9662606 -0.00065712 0.9662606 -0.00065712 1.95204163 -0.00132751 C4.07877029 0.00076058 6.2047081 0.02409104 8.33129883 0.04760742 C9.80674305 0.05320334 11.28219286 0.05747346 12.75764465 0.06047058 C16.63922542 0.0719198 20.52046891 0.10138731 24.4019165 0.13458252 C28.36335691 0.16528193 32.32485186 0.17897562 36.28637695 0.1940918 C44.05801502 0.22625723 51.82937527 0.27745412 59.60083008 0.34057617 C59.60083008 1.00057617 59.60083008 1.66057617 59.60083008 2.34057617 C60.26083008 2.34057617 60.92083008 2.34057617 61.60083008 2.34057617 C63.1450337 5.42898341 62.74143208 8.68177333 62.73454285 12.0710144 C62.7368084 12.87844436 62.73907396 13.68587431 62.74140817 14.51777184 C62.74776661 17.23850609 62.74691763 19.95919076 62.74609375 22.67993164 C62.7490841 24.62445134 62.75248634 26.56897045 62.75627136 28.51348877 C62.76512842 33.80686169 62.7674502 39.10021846 62.76808715 44.39359808 C62.76903493 48.80726612 62.77271174 53.22093036 62.77625924 57.63459694 C62.78441038 68.04521826 62.78684289 78.45583093 62.78613281 88.86645508 C62.78553192 99.61711082 62.79608456 110.3677164 62.81187648 121.11835945 C62.82493836 130.33792129 62.83031727 139.55746671 62.8296774 148.77703774 C62.82942201 154.28804099 62.83229605 159.79899968 62.84285545 165.30999374 C62.85251366 170.4924394 62.8526313 175.67479772 62.84533882 180.8572464 C62.84429012 182.76161196 62.8466727 184.66598289 62.85269928 186.5703392 C62.86038199 189.16572011 62.85579918 191.76079661 62.84806824 194.35617065 C62.8532118 195.11356281 62.85835536 195.87095497 62.86365479 196.6512984 C62.83920385 200.35415636 62.7509121 203.242625 60.60083008 206.34057617 C57.45657389 208.52907998 54.68360616 208.60249078 50.91772461 208.63110352 C49.77618927 208.64386322 48.63465393 208.65662292 47.45852661 208.66976929 C46.22931488 208.67199493 45.00010315 208.67422058 43.73364258 208.67651367 C42.4661618 208.68317047 41.19868103 208.68982727 39.89279175 208.69668579 C37.21118122 208.70681286 34.52997611 208.71236791 31.84838867 208.71118164 C28.42296747 208.71097857 24.99837704 208.73827211 21.57315254 208.77272606 C18.29334745 208.80039767 15.01354853 208.79914573 11.73364258 208.80151367 C10.50847931 208.8158847 9.28331604 208.83025574 8.02102661 208.84506226 C-2.78644844 208.78712629 -2.78644844 208.78712629 -7.39916992 204.34057617 C-9.9442508 200.63350831 -9.68159993 196.73006883 -9.65986633 192.40086365 C-9.66369188 191.59510283 -9.66751743 190.78934201 -9.6714589 189.9591642 C-9.68178735 187.25607588 -9.67779709 184.55320003 -9.67382812 181.85009766 C-9.67817461 179.91351118 -9.68335754 177.97692643 -9.6893158 176.04034424 C-9.70272189 170.77813147 -9.70328282 165.51599044 -9.7007525 160.25376391 C-9.69968417 155.86475038 -9.70456244 151.47575144 -9.70935792 147.08674103 C-9.72045804 136.73652722 -9.72088724 126.3863497 -9.71484375 116.03613281 C-9.7087984 105.34673312 -9.72112809 94.65746487 -9.74241382 83.96808761 C-9.76000381 74.79860068 -9.76603542 65.62915568 -9.76277608 56.45965248 C-9.76095938 50.97943267 -9.76363804 45.49930668 -9.77749062 40.0191021 C-9.79002255 34.86860172 -9.78816901 29.7183071 -9.77507973 24.56781006 C-9.77270449 22.67431126 -9.7754823 20.78079819 -9.78370285 18.88731575 C-9.79409199 16.30907002 -9.78613343 13.73152483 -9.77339172 11.15330505 C-9.78076601 10.39825524 -9.78814029 9.64320543 -9.79573804 8.86527532 C-9.74327201 3.8437734 -9.74327201 3.8437734 -8.05492973 1.37482834 C-5.41967137 -0.27125683 -3.07478365 -0.01757019 0 0 Z M-6.39916992 2.34057617 C-6.39916992 45.90057617 -6.39916992 89.46057617 -6.39916992 134.34057617 C-6.06916992 134.34057617 -5.73916992 134.34057617 -5.39916992 134.34057617 C-5.39916992 132.69057617 -5.39916992 131.04057617 -5.39916992 129.34057617 C-4.73916992 129.34057617 -4.07916992 129.34057617 -3.39916992 129.34057617 C-3.3845874 130.16259521 -3.37000488 130.98461426 -3.35498047 131.83154297 C-3.28040659 135.5641894 -3.18377481 139.29595076 -3.08666992 143.02807617 C-3.06411133 144.32165039 -3.04155273 145.61522461 -3.01831055 146.94799805 C-2.98286133 148.19516602 -2.94741211 149.44233398 -2.91088867 150.72729492 C-2.88470459 151.87415771 -2.85852051 153.02102051 -2.83154297 154.20263672 C-2.3588848 157.63294471 -1.49161209 159.59971745 0.60083008 162.34057617 C1.26083008 162.34057617 1.92083008 162.34057617 2.60083008 162.34057617 C2.60083008 163.00057617 2.60083008 163.66057617 2.60083008 164.34057617 C5.41561801 165.92265792 7.48447358 166.59981752 10.70751953 166.6628418 C11.5054744 166.68205688 12.30342926 166.70127197 13.12556458 166.72106934 C13.979785 166.72956909 14.83400543 166.73806885 15.71411133 166.74682617 C16.60188766 166.75822632 17.489664 166.76962646 18.40434265 166.78137207 C20.28123225 166.8002418 22.15818766 166.81332805 24.03515625 166.82104492 C26.89352215 166.84044176 29.74899945 166.9024936 32.60668945 166.96557617 C34.43414641 166.97863953 36.26162385 166.98913919 38.08911133 166.99682617 C39.36133293 167.03386658 39.36133293 167.03386658 40.65925598 167.07165527 C46.10824355 167.03114817 49.39211798 165.94311307 53.32359314 162.07589722 C55.39595291 159.26028062 55.44179725 156.95754178 55.38989258 153.51635742 C55.38086914 152.24083008 55.3718457 150.96530273 55.36254883 149.65112305 C55.32846924 148.66680298 55.32846924 148.66680298 55.29370117 147.66259766 C55.22562614 145.64703785 55.21169411 143.63648232 55.20629883 141.61987305 C55.50523254 135.11563525 55.50523254 135.11563525 53.06713867 129.43896484 C52.58325684 129.07649658 52.099375 128.71402832 51.60083008 128.34057617 C52.26083008 128.01057617 52.92083008 127.68057617 53.60083008 127.34057617 C54.40520508 128.33057617 55.20958008 129.32057617 56.03833008 130.34057617 C56.88395508 131.33057617 57.72958008 132.32057617 58.60083008 133.34057617 C58.93083008 133.34057617 59.26083008 133.34057617 59.60083008 133.34057617 C60.73255246 106.40272158 60.59349517 79.51675574 60.26422119 52.56231689 C60.21220091 48.1121427 60.16909871 43.66189827 60.12592506 39.21163082 C60.08331293 34.91471483 60.03586585 30.61786337 59.98682785 26.32101631 C59.96394975 24.27599111 59.94243806 22.23095015 59.92232132 20.18589592 C59.89373966 17.36619785 59.85880904 14.54665206 59.82202148 11.72705078 C59.81469498 10.88639069 59.80736847 10.04573059 59.79981995 9.17959595 C60.09779035 5.45509044 60.09779035 5.45509044 58.60083008 2.34057617 C37.15083008 2.34057617 15.70083008 2.34057617 -6.39916992 2.34057617 Z " fill="#1B81E1" transform="translate(223.399169921875,146.659423828125)"/>
<path d="M0 0 C1.62706627 -0.01073296 1.62706627 -0.01073296 3.28700256 -0.02168274 C5.57568542 -0.02944984 7.86444253 -0.02446874 10.15307617 -0.00756836 C13.64579794 0.01163979 17.13453066 -0.02772758 20.62695312 -0.07226562 C22.85547111 -0.07255604 25.08399273 -0.06941476 27.3125 -0.0625 C28.35123764 -0.07778244 29.38997528 -0.09306488 30.46018982 -0.10881042 C36.57053986 -0.01112586 40.0418932 0.83338009 44.49488831 5.12052917 C46.76559127 8.0402463 46.85460266 10.81469726 46.88378906 14.36669922 C46.89339661 15.31133026 46.90300415 16.2559613 46.91290283 17.22921753 C46.91715271 18.24798981 46.92140259 19.26676208 46.92578125 20.31640625 C46.93148132 21.3657132 46.9371814 22.41502014 46.9430542 23.49612427 C46.95250311 25.71696972 46.95903775 27.93782919 46.96289062 30.15869141 C46.97259833 33.55395987 47.00362409 36.94862357 47.03515625 40.34375 C47.0416862 42.50129849 47.0469367 44.65885131 47.05078125 46.81640625 C47.06312805 47.83113007 47.07547485 48.84585388 47.0881958 49.8913269 C47.0597198 58.91430218 47.0597198 58.91430218 43.72265625 62.69921875 C43.06265625 62.69921875 42.40265625 62.69921875 41.72265625 62.69921875 C41.72265625 63.35921875 41.72265625 64.01921875 41.72265625 64.69921875 C37.90851315 67.24198081 34.71483476 67.06741967 30.28515625 67.1484375 C29.44984375 67.17017532 28.61453125 67.19191315 27.75390625 67.21430969 C25.98204188 67.25824115 24.21005477 67.2974377 22.43798828 67.33227539 C19.76030637 67.38596385 17.0834692 67.4563717 14.40625 67.52929688 C-10.77474585 68.15267553 -10.77474585 68.15267553 -16.9375 62.5625 C-20.78335085 57.21418847 -20.58456991 51.21703138 -20.578125 44.91796875 C-20.58241013 43.98625854 -20.58669525 43.05454834 -20.59111023 42.09460449 C-20.59683479 40.13127452 -20.59736765 38.16792334 -20.59301758 36.20458984 C-20.58985402 33.20894104 -20.61335271 30.21427716 -20.63867188 27.21875 C-20.64094477 25.30599082 -20.64164841 23.393229 -20.640625 21.48046875 C-20.64983475 20.58968628 -20.65904449 19.69890381 -20.66853333 18.78112793 C-20.6184876 12.02345836 -19.34597342 8.05833944 -14.79467773 2.86791992 C-10.39944773 -0.50134902 -5.31482889 -0.03566551 0 0 Z " fill="#F3332A" transform="translate(154.27734375,146.30078125)"/>
<path d="M0 0 C0.66 0 1.32 0 2 0 C2.04668458 25.74690222 2.08197145 51.49379811 2.10362434 77.2407341 C2.11394459 89.19500899 2.12801922 101.1492576 2.15087891 113.10351562 C2.17078987 123.52071756 2.18371099 133.93790047 2.18817699 144.3551209 C2.19078826 149.8728669 2.19694142 155.39055846 2.21146011 160.90828705 C2.22500778 166.09890619 2.22922835 171.28944833 2.22621536 176.48008347 C2.22676679 178.3876754 2.23076095 180.29526985 2.23841095 182.20284653 C2.24832813 184.80270514 2.2459807 187.40227117 2.24050903 190.00213623 C2.24633472 190.76089263 2.2521604 191.51964902 2.25816262 192.30139804 C2.23699629 196.00980868 2.1480755 198.89469703 0 202 C-3.38762084 204.47078768 -6.66816344 204.20663673 -10.75 204.125 C-11.92046875 204.10695313 -13.0909375 204.08890625 -14.296875 204.0703125 C-15.18890625 204.04710937 -16.0809375 204.02390625 -17 204 C-13.48375245 202.05841983 -11.0284349 201.81688932 -7 202 C-6.505 201.01 -6.505 201.01 -6 200 C-4.35 200 -2.7 200 -1 200 C-1.11804305 193.9126222 -1.24227642 187.82541465 -1.37231445 181.73828125 C-1.41569577 179.66637634 -1.45736846 177.59443493 -1.49731445 175.52246094 C-1.55493965 172.54871609 -1.61865625 169.57515552 -1.68359375 166.6015625 C-1.70030624 165.67131256 -1.71701874 164.74106262 -1.73423767 163.78262329 C-1.75418289 162.92188202 -1.77412811 162.06114075 -1.79467773 161.17431641 C-1.81022202 160.41486725 -1.8257663 159.65541809 -1.84178162 158.87295532 C-1.89127127 156.90884279 -1.89127127 156.90884279 -3 155 C-3.66 155 -4.32 155 -5 155 C-5.00410889 154.24380371 -5.00821777 153.48760742 -5.01245117 152.70849609 C-5.04546205 149.26321716 -5.11611697 145.81968877 -5.1875 142.375 C-5.19330078 141.18519531 -5.19910156 139.99539063 -5.20507812 138.76953125 C-5.22851927 131.43830708 -5.22851927 131.43830708 -8.55078125 125.1640625 C-9.35902344 124.44992187 -10.16726563 123.73578125 -11 123 C-8.525 122.505 -8.525 122.505 -6 122 C-5.67 122.99 -5.34 123.98 -5 125 C-4.01 125.66 -3.02 126.32 -2 127 C-1.21866797 108.53142006 -0.90968207 90.08634599 -0.9375 71.6015625 C-0.93894012 70.58855827 -0.94038025 69.57555405 -0.94186401 68.53185272 C-0.95407333 61.22954446 -0.97619629 53.92727824 -1 46.625 C-1.02371648 39.21555268 -1.04394007 31.80612464 -1.05593872 24.39664841 C-1.06240017 21.45944104 -1.07487918 18.52229926 -1.08764648 15.58511353 C-1.09127362 13.80885881 -1.09462601 12.03260349 -1.09765625 10.25634766 C-1.10282257 9.44419296 -1.10798889 8.63203827 -1.11331177 7.79527283 C-1.11384286 2.22768573 -1.11384286 2.22768573 0 0 Z " fill="#3388D6" transform="translate(284,151)"/>
<path d="M0 0 C7.43796542 -0.12692283 14.87565091 -0.21440352 22.31445312 -0.2746582 C24.84418169 -0.29978044 27.37383782 -0.33388421 29.90332031 -0.37719727 C33.54249963 -0.43794555 37.18071812 -0.46623385 40.8203125 -0.48828125 C41.94865509 -0.51408768 43.07699768 -0.5398941 44.23953247 -0.56648254 C53.01395533 -0.56960677 53.01395533 -0.56960677 56.69873047 2.40551758 C60.28578847 6.44961532 60.15038895 9.28744221 60.15390015 14.48246765 C60.16047353 15.65368556 60.16047353 15.65368556 60.1671797 16.84856445 C60.18059293 19.47936761 60.18675224 22.11013726 60.19287109 24.7409668 C60.20077014 26.62150729 60.20903897 28.50204626 60.21765137 30.38258362 C60.24389658 36.57144722 60.25918251 42.76031767 60.2734375 48.94921875 C60.27879635 51.07818926 60.28417385 53.20715973 60.28956985 55.33613014 C60.31120315 64.19163139 60.32994006 73.04713079 60.34119225 81.90265179 C60.35743179 94.60063888 60.39060472 107.29831996 60.44759309 119.99619168 C60.4862808 128.92025913 60.50582362 137.8442447 60.51111281 146.76839381 C60.51476815 152.10020248 60.52680881 157.43168495 60.55921555 162.76340294 C60.58927504 167.78100494 60.59561547 172.79808303 60.58383179 177.81575584 C60.58361087 179.65599011 60.59193103 181.49624853 60.60948563 183.33639908 C60.63217858 185.8524338 60.6238829 188.36656901 60.60800171 190.88261414 C60.6218838 191.60792208 60.63576588 192.33323002 60.65006864 193.08051699 C60.57414153 197.97512721 59.22175577 200.89586591 56.46299994 204.75412685 C55 206 55 206 51 206 C51 205.34 51 204.68 51 204 C52.32 204 53.64 204 55 204 C55.144375 203.360625 55.28875 202.72125 55.4375 202.0625 C56 200 56 200 57 199 C57.09511266 196.35261911 57.12555635 193.73140999 57.11352539 191.08374023 C57.11367142 190.25454071 57.11381744 189.42534119 57.1139679 188.5710144 C57.11326851 185.81684802 57.10547493 183.06274839 57.09765625 180.30859375 C57.09579216 178.40430234 57.09436822 176.50001045 57.09336853 174.59571838 C57.08954263 169.57332037 57.07971173 164.55095108 57.06866455 159.52856445 C57.05845198 154.4077188 57.05387124 149.28686852 57.04882812 144.16601562 C57.03808953 134.11066443 57.02101224 124.0553346 57 114 C56.01 114.495 56.01 114.495 55 115 C53.97247706 105.71559633 53.97247706 105.71559633 54.125 101.75 C53.96665499 98.26640975 52.62554632 96.04789935 51 93 C51 92.01 51 91.02 51 90 C53 90 53 90 55.125 92 C55.74375 92.66 56.3625 93.32 57 94 C57.09258399 82.5781068 57.16370604 71.15630251 57.20724869 59.73411083 C57.22814454 54.4305975 57.25649873 49.12734043 57.30175781 43.82397461 C57.34514417 38.70817348 57.36912205 33.5926192 57.37950897 28.47664833 C57.38691331 26.52253646 57.40137189 24.56843846 57.42292023 22.61443138 C57.45185849 19.88222177 57.45596004 17.15103878 57.45410156 14.41870117 C57.46848267 13.60662201 57.48286377 12.79454285 57.49768066 11.95785522 C57.47973753 7.61605559 57.47973753 7.61605559 55.30407715 4.00085449 C52.59957231 2.82606058 50.62962189 2.60273359 47.68066406 2.56762695 C46.61986633 2.54783279 45.5590686 2.52803864 44.46612549 2.50764465 C43.32746033 2.50125473 42.18879517 2.49486481 41.015625 2.48828125 C39.84489441 2.47033005 38.67416382 2.45237885 37.46795654 2.43388367 C33.72867433 2.37970134 29.98952036 2.34585858 26.25 2.3125 C23.71482588 2.27933403 21.17966869 2.24484506 18.64453125 2.20898438 C12.42980248 2.12397016 6.21505728 2.05565366 0 2 C0 1.34 0 0.68 0 0 Z " fill="#4D93D6" transform="translate(305,147)"/>
<path d="M0 0 C0.99 1.051875 0.99 1.051875 2 2.125 C11.34813291 11.4203186 20.37705373 15.15111607 33.55349731 15.14476013 C34.84304945 15.1500504 34.84304945 15.1500504 36.15865314 15.15544754 C39.03822866 15.16611894 41.91777108 15.16981274 44.79736328 15.17358398 C46.86217386 15.17989024 48.92698308 15.18665612 50.99179077 15.19384766 C55.43722373 15.20850925 59.88265147 15.22023714 64.3280983 15.22979546 C71.35278034 15.24524378 78.37741729 15.26919088 85.40206909 15.29469299 C105.37690385 15.36591313 125.35176397 15.42576496 145.32666016 15.47680664 C156.35919291 15.50507299 167.39168034 15.5404297 178.42416561 15.58346039 C185.4122042 15.61028529 192.40019155 15.62815769 199.38827157 15.63949764 C203.72816098 15.64859959 208.06798783 15.66594923 212.40784073 15.68567657 C214.42549663 15.69317272 216.44316854 15.69723437 218.46083832 15.69767189 C221.20750738 15.69874878 223.95385546 15.71194537 226.70046997 15.72825623 C227.50541999 15.72563937 228.31037001 15.72302252 229.13971245 15.72032636 C232.9583978 15.75593814 234.74497125 15.82998084 238 18 C107.3517557 19.10338564 107.3517557 19.10338564 62.25953674 19.12338257 C59.87350049 19.12500102 57.48747375 19.12855093 55.10144043 19.13256836 C51.45228627 19.13827965 47.80317409 19.13876288 44.1540184 19.13431931 C42.25039415 19.13286646 40.3467681 19.1357616 38.44314575 19.13882446 C37.34284027 19.13571259 36.24253479 19.13260071 35.10888672 19.12939453 C34.16133514 19.12859894 33.21378357 19.12780334 32.23751831 19.12698364 C30 19 30 19 28 18 C26.12943209 17.7724985 24.25314042 17.59037189 22.375 17.4375 C21.37210938 17.35371094 20.36921875 17.26992188 19.3359375 17.18359375 C18.56507813 17.12300781 17.79421875 17.06242187 17 17 C17 16.34 17 15.68 17 15 C16.236875 15.061875 15.47375 15.12375 14.6875 15.1875 C12 15 12 15 10.5625 13.8125 C10.046875 13.214375 9.53125 12.61625 9 12 C7.94561354 11.1358379 6.88237968 10.28240498 5.8125 9.4375 C4.884375 8.633125 3.95625 7.82875 3 7 C3 6.34 3 5.68 3 5 C2.34 5 1.68 5 1 5 C0.67 3.35 0.34 1.7 0 0 Z " fill="#78B6DF" transform="translate(118,366)"/>
<path d="M0 0 C1.16804169 0.00444122 2.33608337 0.00888245 3.53952026 0.01345825 C4.18354797 0.0131662 4.82757568 0.01287415 5.49111938 0.01257324 C7.623112 0.0139683 9.75475655 0.02953729 11.88668823 0.04519653 C13.36356414 0.04892605 14.84044252 0.05177331 16.31732178 0.05377197 C20.20704971 0.0614133 24.09662861 0.08106596 27.98629761 0.10317993 C31.95437606 0.12362768 35.92247855 0.13277139 39.89059448 0.14285278 C47.67842289 0.16431147 55.46612844 0.19845331 63.25387573 0.24050903 C63.25387573 0.90050903 63.25387573 1.56050903 63.25387573 2.24050903 C63.91387573 2.24050903 64.57387573 2.24050903 65.25387573 2.24050903 C64.59387573 3.56050903 63.93387573 4.88050903 63.25387573 6.24050903 C62.75887573 4.75550903 62.75887573 4.75550903 62.25387573 3.24050903 C40.80387573 2.91050903 19.35387573 2.58050903 -2.74612427 2.24050903 C-2.7158313 8.28339233 -2.68553833 14.32627563 -2.65432739 20.55227661 C-2.55447419 40.47330345 -2.45470232 60.3943307 -2.35497284 80.31535816 C-2.2944794 92.39856295 -2.23395778 104.4817676 -2.17337036 116.56497192 C-2.12057662 127.09386517 -2.0678352 137.62275868 -2.01515722 148.15165251 C-1.98725016 153.72914664 -1.95931648 159.30664062 -1.93132019 164.88413429 C-1.90499073 170.12972164 -1.87873104 175.37530933 -1.85252571 180.62089729 C-1.84287672 182.5498684 -1.83320185 184.47883937 -1.82349968 186.40781021 C-1.8102935 189.03419715 -1.79717899 191.66058453 -1.78408813 194.28697205 C-1.78019719 195.05642318 -1.77630624 195.82587432 -1.77229738 196.61864215 C-1.75804956 199.49263775 -1.74612427 202.36647249 -1.74612427 205.24050903 C-3.2227354 204.23676395 -3.2227354 204.23676395 -4.74612427 202.24050903 C-5.03873137 199.51766932 -5.14649345 197.023875 -5.12034607 194.3004303 C-5.12432048 193.48256768 -5.12829488 192.66470507 -5.13238972 191.82205874 C-5.14204109 189.0719629 -5.13017763 186.32237784 -5.11843872 183.57229614 C-5.12086573 181.60467842 -5.12458417 179.63706193 -5.12950134 177.66944885 C-5.13892577 172.31835765 -5.12947218 166.96744885 -5.11616921 161.61637187 C-5.10487562 156.02522796 -5.10896056 150.43409331 -5.11091614 144.84294128 C-5.1117997 135.45354217 -5.10070503 126.06421517 -5.08230591 116.67483521 C-5.06113119 105.80652632 -5.05762935 94.93832307 -5.06386787 84.06999773 C-5.0695546 73.62993401 -5.06392443 63.18990765 -5.05269432 52.74984932 C-5.04803979 48.29971186 -5.04717816 43.84959717 -5.04928017 39.39945793 C-5.0511583 34.16363867 -5.04309586 28.92792755 -5.02721977 23.69213295 C-5.02296295 21.76596906 -5.02213569 19.83979422 -5.02490997 17.91362762 C-5.02811231 15.29349954 -5.01909957 12.67369855 -5.00682068 10.05360413 C-5.0106 9.28328651 -5.01437933 8.51296889 -5.01827317 7.71930832 C-4.95747238 0.4341817 -4.95747238 0.4341817 0 0 Z " fill="#277DCE" transform="translate(219.74612426757813,146.75949096679688)"/>
<path d="M0 0 C0.33 0 0.66 0 1 0 C1.33 51.48 1.66 102.96 2 156 C1.01 156 0.02 156 -1 156 C-1.02333444 135.95543747 -1.04098186 115.91087768 -1.05181217 95.8663044 C-1.05697397 86.55979077 -1.06401446 77.25328557 -1.07543945 67.94677734 C-1.08538984 59.8376022 -1.09185428 51.72843316 -1.09408849 43.61925209 C-1.095395 39.32337112 -1.09847705 35.02750762 -1.10573006 30.73163223 C-1.11249585 26.69176084 -1.11461581 22.65191418 -1.11310768 18.61203766 C-1.11338376 17.12609854 -1.11538558 15.64015863 -1.11920547 14.1542244 C-1.12415135 12.13180381 -1.12239552 10.10937008 -1.12025452 8.08694458 C-1.12117631 6.95313921 -1.1220981 5.81933384 -1.12304783 4.65117073 C-1 2 -1 2 0 0 Z " fill="#4B93D9" transform="translate(112,198)"/>
<path d="M0 0 C1.47906892 -0.02689216 2.95827483 -0.04634621 4.4375 -0.0625 C5.26121094 -0.07410156 6.08492188 -0.08570313 6.93359375 -0.09765625 C9 0 9 0 10 1 C13.06412438 1.10824754 16.10612348 1.1505083 19.17102051 1.15148926 C20.63285586 1.15783787 20.63285586 1.15783787 22.12422323 1.16431475 C25.4168013 1.17741627 28.70935512 1.1833829 32.00195312 1.18945312 C34.35200145 1.19738991 36.70204828 1.20577741 39.05209351 1.21458435 C44.12727938 1.2326871 49.20246188 1.24768668 54.27766418 1.26036072 C61.6254313 1.27883128 68.97317001 1.30330562 76.32091254 1.32973462 C88.25397038 1.37257221 100.1870371 1.41167016 112.12011719 1.44775391 C112.83493844 1.44991671 113.54975969 1.45207951 114.28624219 1.45430785 C119.35749452 1.4696286 124.42874724 1.4848209 129.5 1.5 C135.27897167 1.51731005 141.0579431 1.53470139 146.83691406 1.55224609 C147.90420544 1.5554844 147.90420544 1.5554844 148.99305826 1.55878812 C160.87070613 1.59494562 172.74833832 1.6349096 184.62596464 1.67754889 C192.6024875 1.70598111 200.57900758 1.7294807 208.5555563 1.74947357 C213.52504224 1.76288581 218.4945084 1.78029781 223.46397781 1.79878426 C225.76615013 1.80652368 228.06832875 1.8126005 230.3705101 1.81687737 C233.51807702 1.82295185 236.66556775 1.83501409 239.81311035 1.84851074 C241.1735052 1.84895472 241.1735052 1.84895472 242.56138277 1.84940767 C248.11281419 1.88101072 253.49155017 2.3005832 259 3 C259 3.33 259 3.66 259 4 C227.30467874 4.04564594 195.60936685 4.08103007 163.91402039 4.10213066 C160.17030065 4.10463201 156.42658097 4.10722066 152.68286133 4.10986328 C151.93756843 4.1103879 151.19227553 4.11091252 150.424398 4.11145304 C138.36392958 4.12015064 126.30348026 4.13591706 114.24302316 4.15430559 C101.86369505 4.17302259 89.48437693 4.18412053 77.10503525 4.18817699 C69.46912928 4.19091831 61.83327732 4.19957004 54.19738799 4.21583293 C48.3376969 4.22767557 42.47803339 4.22890679 36.61833 4.22621536 C34.21778405 4.2267652 31.81723603 4.2307383 29.41670227 4.23841095 C26.13547923 4.24838332 22.85448598 4.24596037 19.57325745 4.24050903 C18.15347519 4.24924756 18.15347519 4.24924756 16.70501047 4.25816262 C10.84834174 4.23192201 5.67721707 3.45653257 0 2 C0 1.34 0 0.68 0 0 Z " fill="#187BDB" transform="translate(116,433)"/>
<path d="M0 0 C0.33 0 0.66 0 1 0 C1 30.36 1 60.72 1 92 C0.34 92 -0.32 92 -1 92 C-1.33 94.97 -1.66 97.94 -2 101 C-2.66 101 -3.32 101 -4 101 C-3.8600209 100.44386017 -3.72004181 99.88772034 -3.57582092 99.31472778 C-1.42518685 89.4484971 -1.66559001 79.53657984 -1.62109375 69.4921875 C-1.60489694 67.51489457 -1.5877147 65.5376095 -1.56959534 63.56033325 C-1.52418004 58.3889121 -1.48921974 53.21748022 -1.45739746 48.04595947 C-1.40524159 39.73413747 -1.34053209 31.42242942 -1.26918221 23.11075211 C-1.24631189 20.20738018 -1.23007548 17.30402312 -1.21446228 14.40060425 C-1.20106576 12.63669665 -1.18745186 10.87279068 -1.17358398 9.10888672 C-1.17097061 8.29754776 -1.16835724 7.4862088 -1.16566467 6.65028381 C-1.11365257 1.11365257 -1.11365257 1.11365257 0 0 Z " fill="#478FD5" transform="translate(388,261)"/>
<path d="M0 0 C0.99 1.051875 0.99 1.051875 2 2.125 C10.85494834 10.92992038 19.73363946 14.28794639 32 16 C32 16.66 32 17.32 32 18 C56.42 18 80.84 18 106 18 C106 18.33 106 18.66 106 19 C96.12537698 19.02313799 86.25076037 19.04092255 76.3761158 19.05181217 C71.79126149 19.0570378 67.20642569 19.06412967 62.62158203 19.07543945 C58.19958183 19.08627967 53.77759946 19.09227925 49.35558701 19.09487724 C47.66583856 19.09672944 45.97609113 19.10034614 44.28635025 19.10573006 C41.92541622 19.11295551 39.56455653 19.1139903 37.20361328 19.11352539 C36.14841492 19.1189183 36.14841492 19.1189183 35.07189941 19.12442017 C30.22810432 19.11405216 30.22810432 19.11405216 28 18 C26.12943209 17.7724985 24.25314042 17.59037189 22.375 17.4375 C21.37210938 17.35371094 20.36921875 17.26992188 19.3359375 17.18359375 C18.56507813 17.12300781 17.79421875 17.06242187 17 17 C17 16.34 17 15.68 17 15 C16.236875 15.061875 15.47375 15.12375 14.6875 15.1875 C12 15 12 15 10.5625 13.8125 C10.046875 13.214375 9.53125 12.61625 9 12 C7.94561354 11.1358379 6.88237968 10.28240498 5.8125 9.4375 C4.884375 8.633125 3.95625 7.82875 3 7 C3 6.34 3 5.68 3 5 C2.34 5 1.68 5 1 5 C0.67 3.35 0.34 1.7 0 0 Z " fill="#1477D5" transform="translate(118,366)"/>
<path d="M0 0 C0.33 0 0.66 0 1 0 C1.04631394 11.66544284 1.08186445 23.33086385 1.10362434 34.99637985 C1.1140673 40.41298416 1.12823593 45.82952562 1.15087891 51.24609375 C1.17258891 56.4721056 1.18456477 61.69805695 1.18975449 66.92411041 C1.19345355 68.9192322 1.20067676 70.91435064 1.21146011 72.90944672 C1.22595046 75.70109751 1.22797896 78.49249741 1.22705078 81.28417969 C1.23424133 82.11136505 1.24143188 82.93855042 1.24884033 83.790802 C1.2232889 90.87977979 1.2232889 90.87977979 -1 94 C-4.38762084 96.47078768 -7.66816344 96.20663673 -11.75 96.125 C-12.92046875 96.10695313 -14.0909375 96.08890625 -15.296875 96.0703125 C-16.18890625 96.04710937 -17.0809375 96.02390625 -18 96 C-14.48375245 94.05841983 -12.0284349 93.81688932 -8 94 C-7.505 93.01 -7.505 93.01 -7 92 C-5.35 92 -3.7 92 -2 92 C-1.01392257 87.91010797 -0.89863379 84.12266504 -0.9375 79.921875 C-0.94612325 78.45849703 -0.9545781 76.99511805 -0.96289062 75.53173828 C-0.96909424 74.75445374 -0.97529785 73.97716919 -0.98168945 73.17633057 C-1.11015897 56.15283491 -0.87127169 39.14431839 -0.5 22.125 C-0.47599121 21.01991089 -0.45198242 19.91482178 -0.42724609 18.77624512 C-0.29016486 12.51736771 -0.14750211 6.25864012 0 0 Z " fill="#5093D6" transform="translate(285,259)"/>
<path d="M0 0 C0.99 0.33 1.98 0.66 3 1 C2.01 1.495 2.01 1.495 1 2 C1 2.66 1 3.32 1 4 C-1.48997838 5.74268595 -3.97268542 7.35622995 -6.5625 8.9375 C-7.26697266 9.38029297 -7.97144531 9.82308594 -8.69726562 10.27929688 C-15.28090318 14.35083678 -21.16937485 17.20095662 -29 18 C-29 17.34 -29 16.68 -29 16 C-27.68 15.67 -26.36 15.34 -25 15 C-25 14.01 -25 13.02 -25 12 C-24.01 12.33 -23.02 12.66 -22 13 C-21.01 12.67 -20.02 12.34 -19 12 C-19 11.34 -19 10.68 -19 10 C-17.68 9.67 -16.36 9.34 -15 9 C-15 8.01 -15 7.02 -15 6 C-12.61435923 6.57584432 -10.33317216 7.22227595 -8 8 C-8.495 7.38125 -8.99 6.7625 -9.5 6.125 C-11 4 -11 4 -11 2 C-9.68 2 -8.36 2 -7 2 C-7 2.99 -7 3.98 -7 5 C-6.01 5 -5.02 5 -4 5 C-4 4.34 -4 3.68 -4 3 C-2.68 3 -1.36 3 0 3 C0 2.01 0 1.02 0 0 Z " fill="#157AD9" transform="translate(413,416)"/>
<path d="M0 0 C3 1 3 1 4.15234375 2.7734375 C5.04961354 5.13032128 5.36533073 7.11633569 5.5625 9.625 C5.81884544 12.93666003 5.81884544 12.93666003 7 16 C7.10222756 18.78119094 7.14055423 21.53134805 7.125 24.3125 C7.12306641 25.14177002 7.12113281 25.97104004 7.11914062 26.82543945 C7.05380553 36.5630906 6.54166015 46.27913483 6 56 C5.67 56 5.34 56 5 56 C4.98541748 54.89188965 4.97083496 53.7837793 4.95581055 52.64208984 C4.89708526 48.46324107 4.81986976 44.28489024 4.73754883 40.10644531 C4.70464374 38.31063013 4.67650929 36.51472006 4.65356445 34.71875 C4.49603304 22.70614154 3.83548241 11.50644723 0 0 Z " fill="#4088CE" transform="translate(382,130)"/>
<path d="M0 0 C2 0 2 0 4.60546875 2.4140625 C7.86584616 6.48743891 7.57263319 10.35643037 7.3125 15.375 C7.28994141 16.20644531 7.26738281 17.03789062 7.24414062 17.89453125 C7.18563654 19.93047353 7.09596795 21.96547945 7 24 C6.01 24.33 5.02 24.66 4 25 C2.97247706 15.71559633 2.97247706 15.71559633 3.125 11.75 C2.96665499 8.26640975 1.62554632 6.04789935 0 3 C0 2.01 0 1.02 0 0 Z " fill="#2783DC" transform="translate(356,237)"/>
<path d="M0 0 C0.33 0 0.66 0 1 0 C1.1306555 8.42313125 1.26106255 16.8462663 1.39115143 25.26940632 C1.45156309 29.1805013 1.5120607 33.09159492 1.57275391 37.00268555 C1.63131057 40.77629987 1.68964255 44.54991761 1.74781799 48.32353783 C1.77006509 49.76405143 1.79239349 51.20456378 1.81480408 52.64507484 C1.84615158 54.66092222 1.87718461 56.67677449 1.90820312 58.69262695 C1.92596802 59.84068314 1.94373291 60.98873932 1.96203613 62.17158508 C1.98811127 64.11425628 2 66.05715381 2 68 C0.51554871 66.89421082 0.51554871 66.89421082 -1 65 C-1.32279968 62.17158508 -1.32279968 62.17158508 -1.2487793 58.69262695 C-1.22853195 57.39150467 -1.20828461 56.09038239 -1.18742371 54.74983215 C-1.15001371 53.32930659 -1.11227088 51.90878976 -1.07421875 50.48828125 C-1.04618285 49.0352779 -1.01949273 47.58224802 -0.99409485 46.12919617 C-0.92366003 42.30658488 -0.83493956 38.48460791 -0.74243164 34.66247559 C-0.65124544 30.76153007 -0.57732153 26.86026188 -0.50195312 22.95898438 C-0.35154791 15.30556854 -0.18182756 7.65274062 0 0 Z " fill="#1679D7" transform="translate(216,284)"/>
<path d="M0 0 C0.33 0 0.66 0 1 0 C1.04954711 4.05676492 1.085789 8.11341194 1.10986328 12.17041016 C1.11990253 13.54967315 1.13353677 14.92891496 1.15087891 16.30810547 C1.17521754 18.2938514 1.18543255 20.2797545 1.1953125 22.265625 C1.20578613 23.45961914 1.21625977 24.65361328 1.22705078 25.88378906 C1.00844165 28.88414062 0.63958906 30.51756998 -1 33 C-4.38762084 35.47078768 -7.66816344 35.20663673 -11.75 35.125 C-12.92046875 35.10695313 -14.0909375 35.08890625 -15.296875 35.0703125 C-16.18890625 35.04710937 -17.0809375 35.02390625 -18 35 C-14.48375245 33.05841983 -12.0284349 32.81688932 -8 33 C-7.67 32.34 -7.34 31.68 -7 31 C-5.35 31 -3.7 31 -2 31 C-1.14705225 27.24520868 -0.81620293 23.66988506 -0.68359375 19.82421875 C-0.64169922 18.66728516 -0.59980469 17.51035156 -0.55664062 16.31835938 C-0.51732422 15.12017578 -0.47800781 13.92199219 -0.4375 12.6875 C-0.39431641 11.46998047 -0.35113281 10.25246094 -0.30664062 8.99804688 C-0.20078504 5.9988053 -0.09870274 2.99948409 0 0 Z " fill="#81BDE7" transform="translate(285,320)"/>
<path d="M0 0 C5.01320947 9.4404594 5.59046384 19.53564498 6 30 C5.34 30 4.68 30 4 30 C3.67 30.66 3.34 31.32 3 32 C2.67 30.68 2.34 29.36 2 28 C2.99 28.33 3.98 28.66 5 29 C4.5359375 27.948125 4.5359375 27.948125 4.0625 26.875 C3 24 3 24 2.5 20.8125 C2.25414188 17.87252617 2.25414188 17.87252617 0 16 C0.0234375 13.8359375 0.0234375 13.8359375 0.375 11.375 C0.48585938 10.55773437 0.59671875 9.74046875 0.7109375 8.8984375 C0.80632812 8.27195312 0.90171875 7.64546875 1 7 C0.34 7 -0.32 7 -1 7 C-0.67 4.69 -0.34 2.38 0 0 Z " fill="#418FD9" transform="translate(434,110)"/>
<path d="M0 0 C0.99 1.051875 0.99 1.051875 2 2.125 C10.85494834 10.92992038 19.73363946 14.28794639 32 16 C32 16.33 32 16.66 32 17 C27.05 17 22.1 17 17 17 C17 16.34 17 15.68 17 15 C16.236875 15.061875 15.47375 15.12375 14.6875 15.1875 C12 15 12 15 10.5625 13.8125 C10.046875 13.214375 9.53125 12.61625 9 12 C7.94561354 11.1358379 6.88237968 10.28240498 5.8125 9.4375 C4.884375 8.633125 3.95625 7.82875 3 7 C3 6.34 3 5.68 3 5 C2.34 5 1.68 5 1 5 C0.67 3.35 0.34 1.7 0 0 Z " fill="#4B91D8" transform="translate(118,366)"/>
<path d="M0 0 C3.11098915 -0.4552667 5.22747574 -0.49460395 7.921875 1.23046875 C12.7594914 5.27847421 12.7594914 5.27847421 14 9 C14.0853013 11.87694671 14.11585645 14.72900182 14.09765625 17.60546875 C14.0962413 18.44467361 14.09482635 19.28387848 14.09336853 20.14851379 C14.08777215 22.82821216 14.07522035 25.5078269 14.0625 28.1875 C14.05748453 30.00455608 14.05292171 31.82161348 14.04882812 33.63867188 C14.03780391 38.09248013 14.02054178 42.54622589 14 47 C13.67 47 13.34 47 13 47 C12.67 34.46 12.34 21.92 12 9 C11.34 9 10.68 9 10 9 C9.67 7.35 9.34 5.7 9 4 C7.68 3.67 6.36 3.34 5 3 C5 2.34 5 1.68 5 1 C3.35 1 1.7 1 0 1 C0 0.67 0 0.34 0 0 Z " fill="#E6817B" transform="translate(187,147)"/>
<path d="M0 0 C2.64 0.66 5.28 1.32 8 2 C6.78763672 2.84111328 6.78763672 2.84111328 5.55078125 3.69921875 C1.28971484 7.96028516 2.21589433 14.18095822 2.1875 19.8125 C2.16236328 20.98232422 2.13722656 22.15214844 2.11132812 23.35742188 C2.05252818 26.2386193 2.01619468 29.11829983 2 32 C1.67 32 1.34 32 1 32 C0.67 22.76 0.34 13.52 0 4 C-0.66 4 -1.32 4 -2 4 C-2 5.65 -2 7.3 -2 9 C-2.33 9 -2.66 9 -3 9 C-3 6.69 -3 4.38 -3 2 C-2.01 2 -1.02 2 0 2 C0 1.34 0 0.68 0 0 Z " fill="#55A0E9" transform="translate(220,272)"/>
<path d="M0 0 C0.33 0 0.66 0 1 0 C1.21882733 6.49562881 1.41378655 12.99165733 1.59204102 19.48852539 C1.65553084 21.69930281 1.72451567 23.90992945 1.79907227 26.12036133 C1.90519719 29.29484995 1.99164919 32.46935359 2.07421875 35.64453125 C2.11157639 36.63524124 2.14893402 37.62595123 2.18742371 38.64668274 C2.20767105 39.56741074 2.2279184 40.48813873 2.2487793 41.43676758 C2.27320602 42.2472908 2.29763275 43.05781403 2.32279968 43.89289856 C1.92309982 46.50197224 1.0072669 47.35735685 -1 49 C-1.99 48.01 -2.98 47.02 -4 46 C-2.02 45.505 -2.02 45.505 0 45 C0 30.15 0 15.3 0 0 Z " fill="#DF3D34" transform="translate(199,158)"/>
<path d="M0 0 C1 3 1 3 1 7 C-2.24237328 8.08079109 -2.88087621 7.87159875 -6 7 C-8.90668312 6.84861775 -11.79458636 6.74356343 -14.703125 6.68359375 C-15.95980988 6.6524221 -15.95980988 6.6524221 -17.24188232 6.62062073 C-19.91117356 6.5553745 -22.58056098 6.49635642 -25.25 6.4375 C-27.06250984 6.39429106 -28.87501005 6.35067601 -30.6875 6.30664062 C-35.12490209 6.19971871 -39.56240068 6.09838134 -44 6 C-43.67 5.34 -43.34 4.68 -43 4 C-41.30472168 4.00785522 -41.30472168 4.00785522 -39.57519531 4.01586914 C-35.37826328 4.03398226 -31.18133469 4.04545512 -26.984375 4.05493164 C-25.16861388 4.05995741 -23.3528568 4.06677903 -21.53710938 4.07543945 C-18.9257711 4.08758189 -16.31448638 4.09324591 -13.703125 4.09765625 C-12.89256653 4.10281754 -12.08200806 4.10797882 -11.24688721 4.11329651 C-6.02391854 4.18287636 -6.02391854 4.18287636 -1 3 C-0.67 2.01 -0.34 1.02 0 0 Z " fill="#3B87D2" transform="translate(357,269)"/>
<path d="M0 0 C0.99 0 1.98 0 3 0 C3.33 2.97 3.66 5.94 4 9 C4.66 9 5.32 9 6 9 C6.33 10.98 6.66 12.96 7 15 C7.66 15 8.32 15 9 15 C9.103125 15.639375 9.20625 16.27875 9.3125 16.9375 C9.539375 17.618125 9.76625 18.29875 10 19 C10.99 19.33 11.98 19.66 13 20 C12.67 21.32 12.34 22.64 12 24 C11.67 23.01 11.34 22.02 11 21 C10.34 21 9.68 21 9 21 C7.3557522 18.77996868 5.85246116 16.57700132 4.375 14.25 C3.95476562 13.61578125 3.53453125 12.9815625 3.1015625 12.328125 C0.87956818 8.86527672 0 7.21092671 0 3 C-0.66 3 -1.32 3 -2 3 C-1 1 -1 1 0 0 Z " fill="#539FE0" transform="translate(69,391)"/>
<path d="M0 0 C13.86 0 27.72 0 42 0 C42 0.33 42 0.66 42 1 C40.87505127 1.01458252 39.75010254 1.02916504 38.59106445 1.04418945 C34.40682613 1.10227754 30.22312003 1.17950964 26.03930664 1.26245117 C24.23047542 1.29565114 22.42154182 1.32369841 20.61254883 1.34643555 C18.00818367 1.38007258 15.4047524 1.43239195 12.80078125 1.48828125 C11.99538406 1.49467117 11.18998688 1.5010611 10.36018372 1.50764465 C4.75008562 1.6536804 1.3862679 2.7783023 -2.8125 6.6875 C-3.204375 7.120625 -3.59625 7.55375 -4 8 C-3.67 6.35 -3.34 4.7 -3 3 C-2.01 2.67 -1.02 2.34 0 2 C0 1.34 0 0.68 0 0 Z " fill="#6CABEC" transform="translate(310,235)"/>
<path d="M0 0 C5.75 0.75 5.75 0.75 8 3 C6.56429734 3.81567174 5.12636566 4.62742093 3.6875 5.4375 C2.88699219 5.88996094 2.08648437 6.34242187 1.26171875 6.80859375 C-1 8 -1 8 -4 9 C-4 9.66 -4 10.32 -4 11 C-4.66 11 -5.32 11 -6 11 C-6.33 9.68 -6.66 8.36 -7 7 C-6.34 7 -5.68 7 -5 7 C-4.67 5.35 -4.34 3.7 -4 2 C-1.525 2.99 -1.525 2.99 1 4 C0.67 2.68 0.34 1.36 0 0 Z " fill="#368BDC" transform="translate(127,114)"/>
<path d="M0 0 C0.33 0 0.66 0 1 0 C1.55414497 10.85200575 0.28981287 19.64590146 -3 30 C-3.33 30 -3.66 30 -4 30 C-3.85980308 27.18711295 -3.71312045 24.37483115 -3.5625 21.5625 C-3.52318359 20.76005859 -3.48386719 19.95761719 -3.44335938 19.13085938 C-3.11328125 13.11328125 -3.11328125 13.11328125 -2 12 C-1.79160985 10.35892758 -1.63248275 8.71143707 -1.5 7.0625 C-1.10977702 2.21955403 -1.10977702 2.21955403 0 0 Z " fill="#428CD5" transform="translate(438,359)"/>
<path d="M0 0 C0.33 0 0.66 0 1 0 C1.07418046 4.35990873 1.12861544 8.71948279 1.16479492 13.07983398 C1.17987768 14.56297199 1.20034689 16.04606544 1.22631836 17.52905273 C1.26272616 19.66140745 1.27973073 21.79317235 1.29296875 23.92578125 C1.31653442 25.85031128 1.31653442 25.85031128 1.34057617 27.8137207 C1 31 1 31 -0.3503418 32.96166992 C-2 34 -2 34 -4.6875 33.6875 C-5.450625 33.460625 -6.21375 33.23375 -7 33 C-5 31 -3 29 -1 27 C-0.84174742 25.00217874 -0.74880829 22.99911166 -0.68359375 20.99609375 C-0.64169922 19.78115234 -0.59980469 18.56621094 -0.55664062 17.31445312 C-0.51732422 16.03505859 -0.47800781 14.75566406 -0.4375 13.4375 C-0.39431641 12.15423828 -0.35113281 10.87097656 -0.30664062 9.54882812 C-0.200152 6.36600147 -0.09814038 3.18309326 0 0 Z " fill="#73B7EA" transform="translate(278,280)"/>
<path d="M0 0 C0.33 0.66 0.66 1.32 1 2 C0.69916504 2.83418457 0.39833008 3.66836914 0.08837891 4.52783203 C-1.29479528 8.94046174 -1.35274051 12.95810428 -1.4140625 17.5546875 C-1.43342865 18.45623566 -1.4527948 19.35778381 -1.4727478 20.28665161 C-1.53224296 23.14933996 -1.57880817 26.01206918 -1.625 28.875 C-1.66320747 30.82293363 -1.7022608 32.77085086 -1.7421875 34.71875 C-1.83791965 39.47903258 -1.92206116 44.2393942 -2 49 C-2.33 49 -2.66 49 -3 49 C-3.07432654 42.98602991 -3.12868588 36.97232904 -3.16479492 30.95800781 C-3.17985288 28.91336406 -3.20030357 26.86875245 -3.22631836 24.82421875 C-3.26283311 21.88012748 -3.27975651 18.93646443 -3.29296875 15.9921875 C-3.30845261 15.0825827 -3.32393646 14.17297791 -3.33988953 13.23580933 C-3.34125843 8.03768042 -2.83272212 4.54150375 0 0 Z " fill="#DC5553" transform="translate(137,152)"/>
<path d="M0 0 C1.32 0.33 2.64 0.66 4 1 C-2.24165701 4.81434595 -9.46634336 9 -17 9 C-17 8.34 -17 7.68 -17 7 C-15.68 6.67 -14.36 6.34 -13 6 C-13 5.01 -13 4.02 -13 3 C-12.01 3.33 -11.02 3.66 -10 4 C-9.01 3.67 -8.02 3.34 -7 3 C-7 2.34 -7 1.68 -7 1 C-4.69 1.33 -2.38 1.66 0 2 C0 1.34 0 0.68 0 0 Z " fill="#3489D9" transform="translate(401,425)"/>
<path d="M0 0 C14.19 0.33 28.38 0.66 43 1 C43 1.33 43 1.66 43 2 C22.21 2.495 22.21 2.495 1 3 C0.67 2.01 0.34 1.02 0 0 Z " fill="#528ECD" transform="translate(228,312)"/>
<path d="M0 0 C5.23435005 4.27293882 9.67106815 8.81580806 14 14 C13.34 14.66 12.68 15.32 12 16 C11.67 15.34 11.34 14.68 11 14 C10.01 14.495 10.01 14.495 9 15 C8.71125 14.236875 8.4225 13.47375 8.125 12.6875 C7.03730987 9.84970692 7.03730987 9.84970692 5 7 C2.94074861 6.27617533 2.94074861 6.27617533 1 6 C1 5.01 1 4.02 1 3 C0.34 3 -0.32 3 -1 3 C-0.67 2.01 -0.34 1.02 0 0 Z " fill="#4C93D8" transform="translate(411,78)"/>
<path d="M0 0 C0.33 0 0.66 0 1 0 C1 7.92 1 15.84 1 24 C0.34 24 -0.32 24 -1 24 C-1.33 26.97 -1.66 29.94 -2 33 C-2.66 33 -3.32 33 -4 33 C-3.79503906 32.29359375 -3.59007812 31.5871875 -3.37890625 30.859375 C-0.68925312 20.61552861 -0.30488491 10.54481263 0 0 Z " fill="#3D8BD6" transform="translate(388,329)"/>
<path d="M0 0 C1.3609623 2.7219246 0.70366248 4.1831957 0.0625 7.125 C-0.13214844 8.03507812 -0.32679687 8.94515625 -0.52734375 9.8828125 C-0.68332031 10.58148438 -0.83929688 11.28015625 -1 12 C-1.66 12 -2.32 12 -3 12 C-3 14.64 -3 17.28 -3 20 C-3.66 19.67 -4.32 19.34 -5 19 C-5.8089913 11.8808766 -2.93279777 6.37883514 0 0 Z " fill="#478ED4" transform="translate(68,104)"/>
<path d="M0 0 C0.99 0.33 1.98 0.66 3 1 C3.33 2.65 3.66 4.3 4 6 C3.01 6.495 3.01 6.495 2 7 C1.71125 7.61875 1.4225 8.2375 1.125 8.875 C-0.19480413 11.36796335 -1.67721672 12.45147781 -4 14 C-3.67 12.35 -3.34 10.7 -3 9 C-2.34 9 -1.68 9 -1 9 C-0.67 6.03 -0.34 3.06 0 0 Z " fill="#1376D9" transform="translate(387,353)"/>
<path d="M0 0 C0.99 0.66 1.98 1.32 3 2 C3 2.66 3 3.32 3 4 C-0.12343663 6.08229108 -0.53852922 6.23770457 -4.01171875 5.9765625 C-4.76904297 5.925 -5.52636719 5.8734375 -6.30664062 5.8203125 C-7.48516602 5.72363281 -7.48516602 5.72363281 -8.6875 5.625 C-9.48478516 5.56828125 -10.28207031 5.5115625 -11.10351562 5.453125 C-13.06973581 5.31183972 -15.03498824 5.15720094 -17 5 C-17 4.67 -17 4.34 -17 4 C-11.0885256 3.22686955 -5.8685408 2.85180723 0 4 C-0.33 3.01 -0.66 2.02 -1 1 C-0.67 0.67 -0.34 0.34 0 0 Z " fill="#E5534A" transform="translate(193,207)"/>
<path d="M0 0 C2.97 0 5.94 0 9 0 C9.33 0.99 9.66 1.98 10 3 C13.3 3 16.6 3 20 3 C20 3.33 20 3.66 20 4 C12.96517526 4.23668569 6.8165735 3.7879537 0 2 C0 1.34 0 0.68 0 0 Z " fill="#4890D5" transform="translate(116,433)"/>
<path d="M0 0 C9.9885556 -0.34911456 9.9885556 -0.34911456 15 2 C15.66 1.67 16.32 1.34 17 1 C17 2.65 17 4.3 17 6 C15.91332031 5.58427734 15.91332031 5.58427734 14.8046875 5.16015625 C7.57244353 2.44378773 7.57244353 2.44378773 0 1 C0 0.67 0 0.34 0 0 Z " fill="#5B9BDA" transform="translate(355,114)"/>
<path d="M0 0 C1.33877662 4.01632987 0.49049413 6.09632491 -1 10 C-3.125 11.4375 -3.125 11.4375 -5 12 C-5.33 11.01 -5.66 10.02 -6 9 C-4.78515625 6.73828125 -4.78515625 6.73828125 -3.0625 4.3125 C-2.49660156 3.50425781 -1.93070312 2.69601563 -1.34765625 1.86328125 C-0.90292969 1.24839844 -0.45820312 0.63351563 0 0 Z " fill="#4290D9" transform="translate(75,92)"/>
<path d="M0 0 C2.31 0.33 4.62 0.66 7 1 C7 1.66 7 2.32 7 3 C7.66 3.33 8.32 3.66 9 4 C9.625 7.0625 9.625 7.0625 10 10 C6.66666667 6.66666667 3.33333333 3.33333333 0 0 Z " fill="#5297DE" transform="translate(372,120)"/>
<path d="M0 0 C-2.36292656 2.52588702 -3.66462511 3.88820837 -7 5 C-7 4.34 -7 3.68 -7 3 C-8.98 3 -10.96 3 -13 3 C-4.58823529 -1.52941176 -4.58823529 -1.52941176 0 0 Z " fill="#3186D8" transform="translate(119,65)"/>
<path d="M0 0 C0.33 0 0.66 0 1 0 C1.08121924 1.60332791 1.13929134 3.20784026 1.1875 4.8125 C1.22230469 5.70582031 1.25710937 6.59914062 1.29296875 7.51953125 C0.95081002 10.41647515 0.24606427 11.22555028 -2 13 C-2.99 12.01 -3.98 11.02 -5 10 C-3.68 9.67 -2.36 9.34 -1 9 C-1.020625 7.88625 -1.04125 6.7725 -1.0625 5.625 C-1 2 -1 2 0 0 Z " fill="#E3564F" transform="translate(200,194)"/>
<path d="M0 0 C3 1 3 1 4.1796875 2.671875 C5.22405287 5.63588339 5.19316459 8.11442868 5.125 11.25 C5.10695313 12.32765625 5.08890625 13.4053125 5.0703125 14.515625 C5.04710937 15.33546875 5.02390625 16.1553125 5 17 C4.67 17 4.34 17 4 17 C3.69255859 15.53626953 3.69255859 15.53626953 3.37890625 14.04296875 C3.10949219 12.77066406 2.84007812 11.49835938 2.5625 10.1875 C2.29566406 8.92292969 2.02882813 7.65835938 1.75390625 6.35546875 C1.06572114 3.02954587 1.06572114 3.02954587 0 0 Z " fill="#5EA1DD" transform="translate(382,130)"/>
<path d="M0 0 C5.75 0.75 5.75 0.75 8 3 C5.1875 4.5625 5.1875 4.5625 2 6 C1.01 5.67 0.02 5.34 -1 5 C-0.34 4.67 0.32 4.34 1 4 C0.67 2.68 0.34 1.36 0 0 Z " fill="#4797E0" transform="translate(127,114)"/>
<path d="M0 0 C6.93 0.495 6.93 0.495 14 1 C14 1.66 14 2.32 14 3 C12.22992286 3.08114106 10.45877902 3.13925505 8.6875 3.1875 C7.70136719 3.22230469 6.71523437 3.25710937 5.69921875 3.29296875 C3 3 3 3 0 0 Z " fill="#D9483E" transform="translate(140,210)"/>
<path d="M0 0 C0.33 0.66 0.66 1.32 1 2 C-0.65 3.98 -2.3 5.96 -4 8 C-5.32 7.67 -6.64 7.34 -8 7 C-5.36 4.69 -2.72 2.38 0 0 Z " fill="#5097DB" transform="translate(92,75)"/>
<path d="M0 0 C2.40616633 2.40616633 2.375933 3.72364822 3 7 C3.65035814 8.34136367 4.3162955 9.67532254 5 11 C5.36784131 12.3242287 5.71202981 13.65613912 6 15 C5.01 15 4.02 15 3 15 C2.49564306 13.0636296 1.99666126 11.12585854 1.5 9.1875 C1.2215625 8.10855469 0.943125 7.02960938 0.65625 5.91796875 C0 3 0 3 0 0 Z " fill="#69A3DC" transform="translate(62,374)"/>
<path d="M0 0 C1.32 0.33 2.64 0.66 4 1 C4.103125 1.639375 4.20625 2.27875 4.3125 2.9375 C4.539375 3.618125 4.76625 4.29875 5 5 C5.99 5.33 6.98 5.66 8 6 C7.67 7.32 7.34 8.64 7 10 C6.67 9.01 6.34 8.02 6 7 C5.34 7 4.68 7 4 7 C2.02 3.535 2.02 3.535 0 0 Z " fill="#6DA8DD" transform="translate(74,405)"/>
<path d="M0 0 C0.66 0 1.32 0 2 0 C2.29296875 5.95703125 2.29296875 5.95703125 2 8 C1.01 8.99 0.02 9.98 -1 11 C-0.67 7.37 -0.34 3.74 0 0 Z " fill="#097CE3" transform="translate(218,276)"/>
<path d="M0 0 C1 3 1 3 1 7 C0.01 7.33 -0.98 7.66 -2 8 C-2.66 7.67 -3.32 7.34 -4 7 C-4 5.68 -4 4.36 -4 3 C-3.01 3 -2.02 3 -1 3 C-0.67 2.01 -0.34 1.02 0 0 Z " fill="#3188DA" transform="translate(357,269)"/>
<path d="M0 0 C1.32 0 2.64 0 4 0 C4 0.66 4 1.32 4 2 C2.34928604 3.02611949 0.68029994 4.02308143 -1 5 C-2.75149165 6.58245275 -2.75149165 6.58245275 -4 8 C-3.67 6.35 -3.34 4.7 -3 3 C-2.01 2.67 -1.02 2.34 0 2 C0 1.34 0 0.68 0 0 Z " fill="#5094D6" transform="translate(310,235)"/>
<path d="M0 0 C0.99 0.99 1.98 1.98 3 3 C2.67 3.99 2.34 4.98 2 6 C1.34 5.67 0.68 5.34 0 5 C0.33 5.99 0.66 6.98 1 8 C0.0625 11.1875 0.0625 11.1875 -1 14 C-1.33 14 -1.66 14 -2 14 C-1.85795259 12.41632253 -1.71119847 10.83306682 -1.5625 9.25 C-1.48128906 8.36828125 -1.40007812 7.4865625 -1.31640625 6.578125 C-1.03761535 4.30649548 -0.61209423 2.20148177 0 0 Z " fill="#1577D5" transform="translate(69,102)"/>
<path d="M0 0 C0.33 0 0.66 0 1 0 C1.16808419 2.10405391 1.33441948 4.20824758 1.5 6.3125 C1.5928125 7.48425781 1.685625 8.65601563 1.78125 9.86328125 C1.92364989 11.905194 2 13.9531279 2 16 C0.48046875 14.91796875 0.48046875 14.91796875 -1 13 C-1.07421875 9.86328125 -1.07421875 9.86328125 -0.6875 6.3125 C-0.56761719 5.13300781 -0.44773438 3.95351563 -0.32421875 2.73828125 C-0.16373047 1.38283203 -0.16373047 1.38283203 0 0 Z " fill="#3B8EDB" transform="translate(216,336)"/>
<path d="M0 0 C2 0 2 0 3.6875 1.125 C5 3 5 3 4.6875 6.1875 C4.460625 7.115625 4.23375 8.04375 4 9 C2.01388388 7.01388388 1.08545288 5.55856751 0 3 C0 2.01 0 1.02 0 0 Z " fill="#5799DD" transform="translate(356,237)"/>
<path d="M0 0 C0.99 0.33 1.98 0.66 3 1 C2.01 1.495 2.01 1.495 1 2 C1 2.66 1 3.32 1 4 C-1.31 5.32 -3.62 6.64 -6 8 C-6 7.01 -6 6.02 -6 5 C-5.34 5 -4.68 5 -4 5 C-4 4.34 -4 3.68 -4 3 C-2.68 3 -1.36 3 0 3 C0 2.01 0 1.02 0 0 Z " fill="#62A0DB" transform="translate(413,416)"/>
<path d="M0 0 C-0.66 0.66 -1.32 1.32 -2 2 C-4.3828125 1.9765625 -4.3828125 1.9765625 -7.125 1.625 C-8.03507812 1.51414062 -8.94515625 1.40328125 -9.8828125 1.2890625 C-10.58148438 1.19367188 -11.28015625 1.09828125 -12 1 C-12 0.67 -12 0.34 -12 0 C-3.42857143 -1.28571429 -3.42857143 -1.28571429 0 0 Z " fill="#458ED7" transform="translate(130,63)"/>
<path d="M0 0 C0.99 0.495 0.99 0.495 2 1 C2 1.66 2 2.32 2 3 C2.66 3 3.32 3 4 3 C4.33 4.65 4.66 6.3 5 8 C3.0625 7.375 3.0625 7.375 1 6 C0.25 2.875 0.25 2.875 0 0 Z " fill="#3E8BD6" transform="translate(71,397)"/>
<path d="M0 0 C1.73662334 3.22515763 2.8905928 6.51329166 4 10 C3.01 10 2.02 10 1 10 C0.63720544 8.71073008 0.28503302 7.41846728 -0.0625 6.125 C-0.35833984 5.04605469 -0.35833984 5.04605469 -0.66015625 3.9453125 C-1 2 -1 2 0 0 Z " fill="#488FD9" transform="translate(114,356)"/>
<path d="M0 0 C0.66 0.66 1.32 1.32 2 2 C0.25 4.5 0.25 4.5 -2 7 C-3.32 7 -4.64 7 -6 7 C-6 6.34 -6 5.68 -6 5 C-4.68 5 -3.36 5 -2 5 C-1.855625 4.360625 -1.71125 3.72125 -1.5625 3.0625 C-1 1 -1 1 0 0 Z " fill="#428ED2" transform="translate(362,346)"/>
<path d="M0 0 C4.95 1.98 4.95 1.98 10 4 C10 4.33 10 4.66 10 5 C7.36 5 4.72 5 2 5 C1.34 3.35 0.68 1.7 0 0 Z " fill="#6DAAE3" transform="translate(128,376)"/>
<path d="M0 0 C0.33 0.99 0.66 1.98 1 3 C1.99 3 2.98 3 4 3 C4.33 4.98 4.66 6.96 5 9 C2.5 6.75 2.5 6.75 0 4 C0 2.68 0 1.36 0 0 Z " fill="#E46261" transform="translate(135,201)"/>
<path d="M0 0 C-0.66 2.31 -1.32 4.62 -2 7 C-3.5 5.6875 -3.5 5.6875 -5 4 C-5 3.01 -5 2.02 -5 1 C-2 0 -2 0 0 0 Z " fill="#4B95DC" transform="translate(117,131)"/>
<path d="M0 0 C1.32 0.33 2.64 0.66 4 1 C-2.75 5 -2.75 5 -5 5 C-5 4.01 -5 3.02 -5 2 C-3.35 2 -1.7 2 0 2 C0 1.34 0 0.68 0 0 Z " fill="#6AA8DF" transform="translate(401,425)"/>
<path d="M0 0 C3.96 0.33 7.92 0.66 12 1 C12 1.33 12 1.66 12 2 C8.37 2.33 4.74 2.66 1 3 C0.67 2.01 0.34 1.02 0 0 Z " fill="#478DD2" transform="translate(228,312)"/>
<path d="M0 0 C1 2 1 2 0.1875 5 C-1 8 -1 8 -3 10 C-2.25 3.375 -2.25 3.375 0 0 Z " fill="#E0605E" transform="translate(137,152)"/>
<path d="M0 0 C0.99 0.33 1.98 0.66 3 1 C3.33 3.31 3.66 5.62 4 8 C3.34 6.68 2.68 5.36 2 4 C1.34 4 0.68 4 0 4 C0 2.68 0 1.36 0 0 Z " fill="#DF5D5A" transform="translate(197,152)"/>
</svg>
